<?xml version="1.0" encoding="UTF-8" standalone="no"?>
<svg width="88px" height="78px" viewBox="0 0 88 78" version="1.1" xmlns="http://www.w3.org/2000/svg" xmlns:xlink="http://www.w3.org/1999/xlink" xmlns:sketch="http://www.bohemiancoding.com/sketch/ns">
    <!-- Generator: Sketch 3.2.2 (9983) - http://www.bohemiancoding.com/sketch -->
    <title>Slice 1</title>
    <desc>Created with Sketch.</desc>
    <defs></defs>
    <g id="Page-1" stroke="none" stroke-width="1" fill="none" fill-rule="evenodd" sketch:type="MSPage">
        <g sketch:type="MSLayerGroup" transform="translate(0.000000, 18.000000)" id="Shape" fill="#000000">
            <path d="M4.009,51.031 C2.087,51.031 1.103,50.164 0.611,49.437 C-0.461,47.855 0.189,46.027 0.336,45.675 L11.503,8.1 C11.755,7.237 12.505,6.612 13.396,6.506 C19.273,5.82 23.82,4.728 26.556,3.346 C29.644,1.79 32.79,0.969 35.656,0.969 C39.324,0.969 42.306,2.258 44.199,4.461 C46.092,2.259 49.074,0.972 52.736,0.972 C55.607,0.972 58.754,1.794 61.841,3.348 C64.595,4.741 69.025,5.805 75.007,6.511 C75.898,6.615 76.642,7.242 76.9,8.103 L87.693,44.378 C87.839,44.858 88.531,47.44 87.136,49.326 C86.163,50.636 84.687,51.242 82.396,50.832 C77.199,49.903 71.861,48.778 68.029,46.842 C64.261,44.944 60.359,43.901 57.06,43.901 C53.732,43.901 51.224,44.932 50.005,46.804 C49.577,47.466 48.798,47.862 48.048,47.826 L40.571,47.58 C39.885,47.559 39.247,47.228 38.837,46.678 C36.13,43.051 30.452,43.221 20.122,46.956 C15.698,48.556 10.513,49.947 5.526,50.879 C4.94,50.987 4.437,51.031 4.009,51.031 L4.009,51.031 L4.009,51.031 Z M57.06,39.4 C61.109,39.4 65.603,40.584 70.056,42.825 C73.372,44.501 78.324,45.535 83.187,46.402 C83.298,46.42 83.398,46.437 83.492,46.443 C83.486,46.206 83.445,45.898 83.381,45.664 L73.003,10.793 C67.226,10.021 62.79,8.87 59.814,7.365 C57.353,6.126 54.904,5.471 52.736,5.471 C48.798,5.471 46.449,7.506 46.449,10.913 C46.449,12.155 45.441,13.163 44.199,13.163 C42.957,13.163 41.949,12.155 41.949,10.913 C41.949,7.504 39.594,5.468 35.656,5.468 C33.488,5.468 31.045,6.123 28.584,7.364 C25.59,8.876 21.154,10.027 15.395,10.792 L4.788,46.438 C9.517,45.553 14.415,44.235 18.593,42.723 C24.405,40.619 28.999,39.6 32.632,39.6 C36.517,39.6 39.57,40.781 41.726,43.116 L47.035,43.292 C49.22,40.771 52.729,39.4 57.06,39.4 L57.06,39.4 L57.06,39.4 Z" sketch:type="MSShapeGroup"></path>
            <path d="M81.007,50.542 C80.72,50.542 80.427,50.486 80.14,50.369 C73.911,47.765 68.872,45.383 64.279,42.869 L63.359,42.362 C59.14,40.042 55.185,37.859 50.709,38.082 C49.912,38.149 46.848,38.615 45.764,38.964 C45.36,39.357 44.809,39.6 44.2,39.6 C42.958,39.6 41.95,38.592 41.95,37.35 L41.95,10.914 C41.95,9.672 42.958,8.664 44.2,8.664 C45.442,8.664 46.45,9.672 46.45,10.914 L46.45,34.075 C47.511,33.858 48.829,33.688 50.458,33.589 C56.183,33.267 61.157,36.015 65.528,38.42 L66.442,38.921 C70.895,41.359 75.799,43.676 81.876,46.216 C83.024,46.696 83.564,48.015 83.089,49.16 C82.724,50.023 81.886,50.542 81.007,50.542 L81.007,50.542 L81.007,50.542 Z" sketch:type="MSShapeGroup"></path>
            <path d="M13.073,42.477 C12.024,42.477 11.081,41.733 10.87,40.661 C10.63,39.442 11.421,38.259 12.64,38.018 C14.802,37.596 16.074,37.08 18.001,36.301 C19.431,35.721 21.206,35.003 23.825,34.136 C36.669,29.867 45.077,35.24 45.429,35.469 C46.472,36.149 46.759,37.543 46.079,38.583 C45.399,39.617 44.011,39.91 42.974,39.236 C42.646,39.031 35.884,34.871 25.244,38.407 C22.748,39.23 21.084,39.907 19.689,40.472 C17.679,41.284 16.091,41.925 13.513,42.435 C13.366,42.465 13.22,42.477 13.073,42.477 L13.073,42.477 L13.073,42.477 Z" sketch:type="MSShapeGroup"></path>
        </g>
    </g>
</svg>