<?xml version="1.0" encoding="UTF-8" standalone="no"?>
<svg width="346px" height="346px" viewBox="0 0 346 346" version="1.1" xmlns="http://www.w3.org/2000/svg" xmlns:xlink="http://www.w3.org/1999/xlink" xmlns:sketch="http://www.bohemiancoding.com/sketch/ns">
    <!-- Generator: Sketch 3.3 (11970) - http://www.bohemiancoding.com/sketch -->
    <title>Fill 11</title>
    <desc>Created with Sketch.</desc>
    <defs></defs>
    <g id="Page-1" stroke="none" stroke-width="1" fill="none" fill-rule="evenodd" sketch:type="MSPage">
        <path d="M346,255.355308 C342.709418,249.905126 338.871646,244.340791 334.540039,238.746057 C334.58905,238.708213 334.638682,238.67161 334.688314,238.635006 C329.404398,238.631904 324.041692,238.741714 318.62253,238.940862 C318.299304,237.399797 317.956224,235.887271 317.577162,234.42996 C317.095114,235.926356 316.639123,237.464318 316.206086,239.033301 C312.039505,239.208873 307.835079,239.446485 303.596531,239.739932 C302.997228,238.461916 302.388619,237.207474 301.759537,236.005146 C301.651588,237.276338 301.566594,238.570485 301.500832,239.882623 C294.961234,240.364051 288.338503,240.990651 281.64939,241.750016 C281.339812,241.464013 281.0383,241.178011 280.721277,240.892628 C284.603097,237.324109 288.391857,233.746903 292.091901,230.165976 C293.750841,230.624449 295.391169,231.043216 297.008542,231.412352 C296.020251,230.413514 294.973022,229.416537 293.898495,228.421421 C298.099819,224.319981 302.168999,220.214198 306.121544,216.108415 C307.74388,216.555721 309.350086,216.965182 310.932717,217.326874 C309.946287,216.328035 308.900299,215.332299 307.825773,214.337804 C310.607009,211.423182 313.327447,208.50856 315.979021,205.59704 C311.768391,206.920345 307.518056,208.319339 303.23484,209.789058 C302.022585,206.858306 300.734022,204.084514 299.379697,201.49622 C299.122853,204.518791 299.000014,207.669164 298.983884,210.90391 L297.61529,211.753233 C293.291127,213.290575 288.933463,214.899263 284.546641,216.581778 C283.570757,214.339045 282.554548,212.185649 281.49305,210.155092 C281.280875,212.663354 281.150591,215.25537 281.102821,217.914389 C276.519953,219.704232 271.907927,221.571005 267.267362,223.514707 C266.532813,221.90726 265.778411,220.345102 264.999193,218.853049 C264.839751,220.724164 264.741108,222.654217 264.674105,224.611567 C257.766613,227.541699 250.803905,230.633755 243.794667,233.89766 C247.075323,228.725415 250.244307,223.568061 253.310306,218.430559 C256.417251,218.415049 259.447887,218.302137 262.362509,218.070108 C260.193603,216.920514 257.88759,215.819931 255.482934,214.762155 C258.141952,210.237605 260.717218,205.730425 263.203766,201.244339 C265.58857,201.194087 267.928084,201.089861 270.193772,200.908085 C268.485821,200.003547 266.695977,199.125686 264.839751,198.276363 C267.663795,193.113425 270.375548,187.980266 272.965082,182.88433 C275.240075,182.831596 277.475984,182.732333 279.642408,182.559863 C277.975403,181.676418 276.228367,180.820892 274.419911,179.990802 C276.774936,175.285095 279.034419,170.609789 281.182852,165.974808 C276.794168,169.036464 272.383771,172.220338 267.959724,175.517744 C266.386399,173.721076 264.804389,172.015607 263.216174,170.429253 C263.745993,172.801649 264.370111,175.223056 265.081085,177.679205 C260.584453,181.076495 256.073551,184.593522 251.553964,188.225322 C250.418638,186.973362 249.279591,185.760488 248.137441,184.618958 C248.525189,186.361031 248.966291,188.130402 249.452681,189.920245 C245.175049,193.390122 240.890591,196.959882 236.603653,200.632629 C235.887715,199.870782 235.170537,199.130649 234.452739,198.41223 C234.701518,199.527082 234.973872,200.653722 235.262356,201.788427 C232.180227,204.444964 229.096237,207.14741 226.014108,209.905693 C228.155716,203.629143 230.177588,197.399123 232.084686,191.220596 C235.108498,190.505899 238.027462,189.706208 240.816144,188.822764 C238.43134,188.188719 235.922458,187.632844 233.326719,187.142731 C234.828078,182.160948 236.253129,177.215769 237.598148,172.311536 C240.000943,171.70727 242.334254,171.05089 244.580709,170.338675 C242.631424,169.820644 240.60707,169.348523 238.515094,168.925413 C240.015833,163.325095 241.419169,157.77627 242.713316,152.292587 C245.100601,151.692664 247.418402,151.040007 249.651829,150.332134 C247.675866,149.806659 245.621114,149.330194 243.498738,148.903362 C244.639026,143.928403 245.696802,139.003077 246.662759,134.137929 C243.272913,137.97446 239.889892,141.928246 236.518038,145.983156 C234.636996,144.631312 232.765261,143.368186 230.915859,142.214248 C231.939513,144.352754 233.063051,146.516077 234.274065,148.694288 C230.685072,153.066841 227.111589,157.566576 223.555477,162.176121 C222.170132,161.214507 220.78913,160.291357 219.420535,159.437691 C220.193549,161.051342 221.025501,162.681123 221.905843,164.320211 C218.565009,168.692144 215.243407,173.169544 211.942278,177.741245 C211.022851,177.124571 210.107146,176.52837 209.196404,175.960087 C209.720018,177.054466 210.271551,178.155669 210.844797,179.261836 C206.657742,185.096043 202.505429,191.082868 198.397785,197.22293 C197.854938,193.647586 197.252534,190.103262 196.616007,186.57817 C198.580182,185.004224 200.491623,183.418491 202.329237,181.821591 C200.234779,182.135512 198.102477,182.504027 195.941636,182.918452 C194.990569,177.923641 193.942099,172.985907 192.808014,168.101526 C194.806311,166.502144 196.749392,164.890975 198.618026,163.267398 C196.430508,163.594967 194.202045,163.981474 191.942561,164.418854 C190.299752,157.656534 188.476407,151.01333 186.493,144.488621 C188.104169,143.180205 189.673152,141.863104 191.196845,140.539799 C189.348684,140.816495 187.470124,141.13724 185.570471,141.492107 C183.804823,135.863251 181.911373,130.332418 179.901289,124.899607 C181.871668,123.321319 183.787451,121.731863 185.630649,120.13062 C183.319052,120.476181 180.963407,120.885643 178.571159,121.354042 C175.773172,114.042671 172.762388,106.914317 169.536948,100 C166.305303,106.929827 163.288316,114.074932 160.484124,121.403674 C158.00378,120.913561 155.563141,120.488589 153.16779,120.13062 C155.07737,121.78956 157.06512,123.436092 159.111187,125.070836 C157.118474,130.463942 155.241155,135.954449 153.489776,141.541739 C151.500785,141.166399 149.534749,140.828903 147.602215,140.539799 C149.195393,141.923903 150.838822,143.300562 152.527541,144.667916 C150.560265,151.151058 148.751809,157.752075 147.120787,164.469106 C144.769485,164.010012 142.454166,163.607996 140.180413,163.267398 C142.121634,164.954256 144.142885,166.628085 146.224315,168.288886 C145.103258,173.128598 144.065335,178.020423 143.123574,182.968704 C140.870915,182.533186 138.649896,182.14792 136.469203,181.821591 C138.382505,183.483633 140.374597,185.133887 142.425007,186.771734 C141.801509,190.232925 141.210892,193.712728 140.677351,197.22293 C137.15474,191.957627 133.598008,186.807096 130.01584,181.765756 C130.840967,180.007552 131.611499,178.262998 132.322473,176.538296 C131.015919,177.458344 129.701299,178.448496 128.383577,179.475252 C125.164961,174.987305 121.925251,170.59552 118.66817,166.296793 C119.57519,164.384111 120.417688,162.486939 121.189461,160.613342 C119.744558,161.631413 118.289729,162.727653 116.831177,163.876007 C113.244045,159.190774 109.636441,154.63024 106.014567,150.185721 C107.002238,148.123523 107.917943,146.078697 108.749274,144.059927 C107.159198,145.179743 105.556714,146.385793 103.949888,147.665051 C100.116459,143.017041 96.2693811,138.503037 92.4117567,134.137929 C93.5483228,139.861705 94.8095885,145.667374 96.1874888,151.543148 C94.2251752,152.060559 92.32304,152.615813 90.4959728,153.213875 C92.5761617,153.747416 94.7264554,154.230085 96.931344,154.665603 C98.2707797,160.231178 99.7119604,165.856932 101.262951,171.540383 C99.6952097,171.972179 98.1572472,172.421966 96.6782223,172.905255 C98.4004425,173.346977 100.170433,173.753337 101.978889,174.128677 C103.40518,179.263697 104.913363,184.440905 106.509643,189.659058 C104.781839,190.126837 103.093741,190.619432 101.472025,191.14925 C103.38967,191.641224 105.364391,192.091632 107.388745,192.501094 C109.179208,198.259613 111.066454,204.060939 113.061028,209.903831 C111.207284,208.245512 109.352919,206.610147 107.498555,204.988431 C107.81992,203.429375 108.110886,201.88707 108.361526,200.36834 C107.481184,201.353529 106.605184,202.388971 105.733527,203.446746 C101.46396,199.738637 97.1950124,196.130412 92.9316488,192.622071 C93.307609,190.844636 93.6420026,189.088294 93.9267645,187.362351 C92.906833,188.502639 91.8937257,189.70869 90.8849613,190.947621 C86.2295072,187.150796 81.5827386,183.476188 76.9489984,179.927521 C77.382035,177.933567 77.7586156,175.968772 78.0774993,174.037478 C76.9142562,175.337829 75.7590782,176.715109 74.611345,178.143261 C69.0128885,173.900991 63.4355254,169.841118 57.8929045,165.974808 C60.7225322,172.081369 63.7407604,178.255553 66.9289772,184.48123 C65.3506889,185.32621 63.8164488,186.1867 62.3554154,187.068903 C64.2730605,187.114192 66.2459208,187.093099 68.243597,187.040365 C70.928052,192.215711 73.7372066,197.427661 76.6611345,202.667529 C75.3421719,203.386568 74.0498863,204.114913 72.815918,204.860009 C74.4723762,204.899094 76.1710214,204.889168 77.8876581,204.855046 C80.5336484,209.550826 83.2745594,214.267699 86.1060483,219.001944 C84.5500943,219.836997 83.0363273,220.68632 81.5951466,221.556736 C83.5568398,221.602645 85.5756095,221.580931 87.6204358,221.525096 C90.1063639,225.638323 92.658054,229.763339 95.2810897,233.89766 C90.0015169,231.439649 84.7486211,229.080903 79.5255044,226.811493 C79.3747481,225.346117 79.2060003,223.898112 79.0062327,222.486089 C78.4987484,223.605284 78.0098761,224.766046 77.5296894,225.94604 C72.5342581,223.795746 67.567365,221.731688 62.6345937,219.757586 C62.4695683,218.049015 62.2834494,216.361537 62.0520416,214.723691 C61.4521183,216.048237 60.8763905,217.429239 60.3143114,218.837539 C54.9509851,216.717024 49.6279845,214.698875 44.3533749,212.791156 C44.1765619,210.848075 43.9705903,208.932911 43.7081627,207.079787 C43.0158004,208.606583 42.3532171,210.203483 41.7117273,211.843811 C35.4339368,209.609143 29.2243898,207.52275 23.0973556,205.59704 C27.4053878,210.328803 31.8951961,215.068011 36.5438258,219.806598 C35.3266082,221.04739 34.1559203,222.290044 33.0603004,223.531457 C34.855107,223.014047 36.6759702,222.437699 38.5173065,221.804274 C42.4475173,225.771088 46.4937422,229.7348 50.6528793,233.692929 C49.6484576,234.733954 48.670713,235.77622 47.751906,236.816624 C49.2861462,236.374282 50.8408594,235.884789 52.4092213,235.357452 C54.4459825,237.280061 56.498874,239.201428 58.5877484,241.119693 C53.6369857,240.614691 48.730271,240.195923 43.8632618,239.843538 C43.7360805,238.693323 43.5977321,237.554276 43.4401515,236.437562 C42.9593443,237.49906 42.4946675,238.597162 42.0374354,239.712635 C38.2089696,239.450207 34.409042,239.237411 30.6388935,239.071145 C30.0712308,237.365675 29.4775115,235.700531 28.855254,234.08564 C28.5382315,235.660206 28.2640163,237.292468 28.0158578,238.958233 C22.3745939,238.742335 16.8009532,238.631284 11.3073436,238.635006 C11.3557345,238.673471 11.4084682,238.709454 11.4574795,238.747918 C7.12649272,244.343273 3.29058217,249.905126 0,255.355308 C6.26103983,252.248363 12.6567057,248.584923 19.0771873,244.467972 C20.8800591,245.790037 22.7077467,247.103416 24.5497034,248.411832 C23.71465,249.788491 22.9149591,251.157706 22.182271,252.510791 C23.6606755,251.688765 25.1490063,250.810905 26.6429207,249.887134 C30.7065167,252.740337 34.8606905,255.560039 39.1054423,258.341275 C37.9031142,260.248994 36.7857804,262.141203 35.7751547,264.005494 C37.8460377,262.854038 39.936153,261.597736 42.0349538,260.248374 C46.0867622,262.861483 50.220463,265.437989 54.4267502,267.979132 C53.2473768,269.855831 52.1511364,271.71702 51.1560207,273.550912 C53.2312465,272.396354 55.3257045,271.13757 57.4294685,269.785727 C71.2667884,278.016525 85.9056603,285.848408 101.257988,293.182113 C101.181679,293.218717 101.107232,293.25532 101.030923,293.289442 C123.048789,300.731096 147.301323,304.869139 172.789065,304.869139 C198.37421,304.869139 222.712979,300.703798 244.797227,293.211892 C244.776754,293.202586 244.756281,293.191419 244.737049,293.182113 C259.951649,285.91417 274.468302,278.157975 288.195192,270.008449 C290.7444,271.486233 293.276238,272.839317 295.773333,274.050331 C294.526957,272.032182 293.142853,269.985494 291.655763,267.925778 C295.856466,265.387117 299.985204,262.812472 304.030808,260.201844 C306.237558,261.454424 308.428798,262.610223 310.595222,263.660554 C309.49712,261.879396 308.293551,260.077144 307.006229,258.264346 C311.185839,255.524056 315.277353,252.746541 319.281391,249.936766 C321.292716,251.064026 323.292253,252.114357 325.270077,253.07349 C324.247664,251.415791 323.139636,249.740101 321.952818,248.053863 C323.622925,246.863323 325.280624,245.667819 326.91909,244.466111 C333.339572,248.583061 339.73834,252.248363 346,255.355308" id="Fill-11" fill="#000000" sketch:type="MSShapeGroup"></path>
    </g>
</svg>