<?xml version="1.0" encoding="UTF-8" standalone="no"?>
<svg width="66px" height="60px" viewBox="0 0 66 60" version="1.1" xmlns="http://www.w3.org/2000/svg" xmlns:xlink="http://www.w3.org/1999/xlink" xmlns:sketch="http://www.bohemiancoding.com/sketch/ns">
    <title>Slice 1</title>
    <description>Created with Sketch (http://www.bohemiancoding.com/sketch)</description>
    <defs></defs>
    <g id="Page-1" stroke="none" stroke-width="1" fill="none" fill-rule="evenodd" sketch:type="MSPage">
        <path d="M53.27,50.218 L2.405,50.218 C1.514,50.218 0.706,49.691 0.345,48.876 C-0.012,48.062 0.143,47.109 0.743,46.45 C8.058,38.437 9.122,29.015 9.181,20.03 C9.184,19.623 9.178,17.335 9.175,14.551 C9.152,1.868 9.152,1.868 9.825,1.189 C10.247,0.767 10.821,0.53 11.419,0.53 L54.269,0.53 C55.511,0.53 56.519,1.538 56.519,2.78 L56.502,12 C56.486,17.575 56.473,23.145 56.508,28.711 C56.555,34.439 56.496,47.939 54.922,49.526 C54.498,49.951 53.871,50.218 53.27,50.218 L53.27,50.218 Z M7.058,45.718 L51.469,45.718 C51.844,41.693 52.026,30.938 52.008,28.743 C51.973,23.159 51.987,17.575 52.002,11.988 L52.016,5.03 L13.661,5.03 C13.661,7.412 13.67,11.311 13.676,14.543 C13.679,17.341 13.685,19.644 13.682,20.057 C13.629,28.207 12.727,37.441 7.058,45.718 L7.058,45.718 Z" id="Shape" fill="#000000" sketch:type="MSShapeGroup"></path>
        <path d="M62.768,59.47 L13.767,59.47 C12.525,59.47 11.517,58.462 11.517,57.22 C11.517,55.978 12.525,54.97 13.767,54.97 L60.664,54.97 C61.184,46.79 61.344,38.444 61.344,38.353 L61.344,12.082 L54.27,12.082 C53.028,12.082 52.02,11.074 52.02,9.832 C52.02,8.59 53.028,7.582 54.27,7.582 L63.594,7.582 C64.836,7.582 65.844,8.59 65.844,9.832 L65.844,38.394 C65.842,38.535 65.651,48.478 65.012,57.381 C64.928,58.559 63.949,59.47 62.768,59.47 L62.768,59.47 Z" id="Shape" fill="#000000" sketch:type="MSShapeGroup"></path>
        <path d="M38.602,40.644 C38.135,40.644 37.664,40.5 37.262,40.199 C36.264,39.458 36.059,38.049 36.799,37.053 L37.156,36.575 C38.22,35.169 40.705,31.879 39.564,30.856 C38.656,30.039 37.113,30.434 34.681,31.181 C32.229,31.934 29.446,32.781 26.941,31.395 C21.914,28.609 24.709,22.969 26.212,19.94 C26.587,19.181 26.941,18.493 27.129,17.933 C27.302,17.412 27.466,16.708 27.249,16.307 C26.777,15.443 24.381,14.833 23.229,14.54 C22.025,14.235 21.295,13.011 21.603,11.807 C21.911,10.6 23.15,9.882 24.336,10.181 C27.096,10.881 29.897,11.766 31.197,14.154 C31.997,15.619 32.061,17.371 31.393,19.363 C31.153,20.081 30.722,20.968 30.242,21.938 C28.434,25.585 28.162,26.927 29.12,27.458 C29.949,27.921 31.683,27.391 33.362,26.881 C36.188,26.017 39.704,24.942 42.569,27.505 C46.788,31.29 42.555,36.895 40.747,39.288 L40.407,39.736 C39.967,40.33 39.289,40.644 38.602,40.644 L38.602,40.644 Z" id="Shape" fill="#000000" sketch:type="MSShapeGroup"></path>
    </g>
</svg>