<?xml version="1.0" encoding="UTF-8" standalone="no"?>
<svg width="435px" height="435px" viewBox="0 0 435 435" version="1.1" xmlns="http://www.w3.org/2000/svg" xmlns:xlink="http://www.w3.org/1999/xlink" xmlns:sketch="http://www.bohemiancoding.com/sketch/ns">
    <!-- Generator: Sketch 3.3 (11970) - http://www.bohemiancoding.com/sketch -->
    <title>tinaja</title>
    <desc>Created with Sketch.</desc>
    <defs></defs>
    <g id="Page-1" stroke="none" stroke-width="1" fill="none" fill-rule="evenodd" sketch:type="MSPage">
        <g id="Group" sketch:type="MSLayerGroup" transform="translate(10.000000, 218.000000)" stroke="#000000" stroke-width="20">
            <path d="M80.7179573,122.956218 C100.619406,127.245352 121.621386,130.871094 148.054688,130.871094 C208.535233,130.871094 235.938778,87.328125 299.109375,87.328125 C320.257813,87.328125 336.385284,89.803165 349.752803,93.0960426" id="Path-1" sketch:type="MSShapeGroup"></path>
            <path d="M40.9785722,70.8053541 C74.9620413,77.2327304 103.946972,87.328125 148.054687,87.328125 C208.535233,87.328125 235.938778,43.7851558 299.109375,43.7851558 C333.512683,43.7851558 354.628859,50.3349254 372.191415,56.3003309" id="Path-1-Copy" sketch:type="MSShapeGroup"></path>
            <path d="M0.0390625,22.3250589 C55.5273404,24.8038725 87.5741415,43.7851558 148.054688,43.7851558 C208.535233,43.7851558 235.938778,0.242186548 299.109375,0.242186548 C362.279972,0.242186548 380.652344,22.3250594 414.484375,22.3250591" id="Path-1-Copy-2" sketch:type="MSShapeGroup"></path>
            <path d="M0.166992188,21.7695314 C28.7294922,21.7695314 58.765625,171.668985 208.363281,172.921869 C357.960938,174.174753 354.370117,21.7695314 414.28418,21.7695314" id="Path-3" sketch:type="MSShapeGroup"></path>
        </g>
    </g>
</svg>